<svg width="182" height="131" viewBox="0 0 182 131" fill="none" xmlns="http://www.w3.org/2000/svg">
<rect width="182" height="131" fill="black"/>
<path d="M64.4014 97.4704H67.7355V98.717H64.4014V97.4704ZM64.5201 100.32H68.2896V101.606H62.9272V94.6805H68.1609V95.9666H64.5201V100.32ZM71.5746 101.685C70.948 101.685 70.4599 101.527 70.1104 101.21C69.7608 100.887 69.586 100.409 69.586 99.7756V95.1059H71.1294V99.7559C71.1294 99.9801 71.1888 100.155 71.3075 100.28C71.4262 100.399 71.5878 100.458 71.7923 100.458C72.0363 100.458 72.2441 100.392 72.4156 100.26L72.8311 101.349C72.6728 101.461 72.4815 101.547 72.2573 101.606C72.0396 101.659 71.8121 101.685 71.5746 101.685ZM68.7648 97.5892V96.4019H72.4551V97.5892H68.7648ZM76.9327 96.2041C77.3548 96.2041 77.7308 96.2898 78.0605 96.4613C78.3969 96.6262 78.6608 96.8834 78.852 97.233C79.0433 97.576 79.1389 98.0179 79.1389 98.5587V101.606H77.5955V98.7962C77.5955 98.3675 77.4999 98.0509 77.3086 97.8464C77.124 97.6419 76.8601 97.5397 76.5171 97.5397C76.2731 97.5397 76.0521 97.5925 75.8543 97.698C75.663 97.7969 75.5113 97.9519 75.3992 98.163C75.2936 98.3741 75.2409 98.6445 75.2409 98.9743V101.606H73.6975V94.2649H75.2409V97.7574L74.8946 97.3121C75.0859 96.956 75.3596 96.6823 75.7158 96.491C76.0719 96.2997 76.4776 96.2041 76.9327 96.2041ZM83.7732 96.2041C84.1953 96.2041 84.5712 96.2898 84.901 96.4613C85.2374 96.6262 85.5012 96.8834 85.6925 97.233C85.8838 97.576 85.9794 98.0179 85.9794 98.5587V101.606H84.436V98.7962C84.436 98.3675 84.3404 98.0509 84.1491 97.8464C83.9644 97.6419 83.7006 97.5397 83.3576 97.5397C83.1136 97.5397 82.8926 97.5925 82.6948 97.698C82.5035 97.7969 82.3518 97.9519 82.2396 98.163C82.1341 98.3741 82.0814 98.6445 82.0814 98.9743V101.606H80.538V96.2832H82.0121V97.7574L81.7351 97.3121C81.9264 96.956 82.2001 96.6823 82.5562 96.491C82.9124 96.2997 83.318 96.2041 83.7732 96.2041ZM87.3784 101.606V96.2832H88.9218V101.606H87.3784ZM88.1501 95.5412C87.8665 95.5412 87.6357 95.4588 87.4576 95.2939C87.2795 95.129 87.1905 94.9245 87.1905 94.6805C87.1905 94.4364 87.2795 94.2319 87.4576 94.0671C87.6357 93.9022 87.8665 93.8197 88.1501 93.8197C88.4337 93.8197 88.6646 93.8989 88.8427 94.0572C89.0208 94.2089 89.1098 94.4067 89.1098 94.6508C89.1098 94.908 89.0208 95.1224 88.8427 95.2939C88.6712 95.4588 88.4403 95.5412 88.1501 95.5412ZM92.9266 101.685C92.3527 101.685 91.8416 101.57 91.3931 101.339C90.9445 101.101 90.5917 100.775 90.3344 100.359C90.0838 99.9438 89.9585 99.4722 89.9585 98.9446C89.9585 98.4103 90.0838 97.9387 90.3344 97.5298C90.5917 97.1143 90.9445 96.7911 91.3931 96.5602C91.8416 96.3228 92.3527 96.2041 92.9266 96.2041C93.4872 96.2041 93.9753 96.3228 94.3908 96.5602C94.8063 96.7911 95.113 97.1242 95.3109 97.5595L94.1138 98.2026C93.9753 97.9519 93.8005 97.7673 93.5894 97.6485C93.385 97.5298 93.1607 97.4704 92.9167 97.4704C92.6528 97.4704 92.4154 97.5298 92.2043 97.6485C91.9933 97.7673 91.8251 97.9354 91.6998 98.1531C91.581 98.3708 91.5217 98.6346 91.5217 98.9446C91.5217 99.2546 91.581 99.5184 91.6998 99.7361C91.8251 99.9537 91.9933 100.122 92.2043 100.241C92.4154 100.359 92.6528 100.419 92.9167 100.419C93.1607 100.419 93.385 100.363 93.5894 100.251C93.8005 100.132 93.9753 99.9438 94.1138 99.6866L95.3109 100.34C95.113 100.768 94.8063 101.101 94.3908 101.339C93.9753 101.57 93.4872 101.685 92.9266 101.685ZM101.386 101.725C100.832 101.725 100.301 101.652 99.7929 101.507C99.2851 101.355 98.8761 101.161 98.5661 100.923L99.1103 99.7163C99.4071 99.9273 99.7567 100.102 100.159 100.241C100.568 100.373 100.98 100.439 101.396 100.439C101.712 100.439 101.966 100.409 102.157 100.349C102.355 100.284 102.5 100.194 102.593 100.082C102.685 99.9702 102.731 99.8416 102.731 99.6965C102.731 99.5118 102.659 99.3667 102.514 99.2612C102.369 99.1491 102.177 99.06 101.94 98.9941C101.702 98.9215 101.439 98.8555 101.148 98.7962C100.865 98.7302 100.578 98.6511 100.288 98.5587C100.004 98.4664 99.7435 98.3477 99.506 98.2026C99.2686 98.0575 99.074 97.8662 98.9223 97.6287C98.7772 97.3913 98.7046 97.0879 98.7046 96.7185C98.7046 96.3228 98.8102 95.9633 99.0212 95.6401C99.2389 95.3103 99.5621 95.0498 99.9908 94.8585C100.426 94.6607 100.97 94.5617 101.623 94.5617C102.059 94.5617 102.487 94.6145 102.909 94.72C103.332 94.819 103.704 94.9707 104.027 95.1751L103.533 96.392C103.21 96.2074 102.886 96.0722 102.563 95.9864C102.24 95.8941 101.923 95.8479 101.613 95.8479C101.303 95.8479 101.049 95.8842 100.852 95.9567C100.654 96.0293 100.512 96.1249 100.426 96.2436C100.34 96.3558 100.297 96.4877 100.297 96.6394C100.297 96.8175 100.37 96.9626 100.515 97.0747C100.66 97.1802 100.852 97.266 101.089 97.3319C101.326 97.3979 101.587 97.4638 101.871 97.5298C102.161 97.5958 102.448 97.6716 102.731 97.7574C103.022 97.8431 103.285 97.9585 103.523 98.1036C103.76 98.2487 103.952 98.44 104.097 98.6775C104.248 98.9149 104.324 99.215 104.324 99.5778C104.324 99.9669 104.215 100.323 103.998 100.646C103.78 100.969 103.454 101.23 103.018 101.428C102.59 101.626 102.045 101.725 101.386 101.725ZM107.487 101.685C106.861 101.685 106.372 101.527 106.023 101.21C105.673 100.887 105.499 100.409 105.499 99.7756V95.1059H107.042V99.7559C107.042 99.9801 107.101 100.155 107.22 100.28C107.339 100.399 107.5 100.458 107.705 100.458C107.949 100.458 108.157 100.392 108.328 100.26L108.744 101.349C108.585 101.461 108.394 101.547 108.17 101.606C107.952 101.659 107.725 101.685 107.487 101.685ZM104.677 97.5892V96.4019H108.368V97.5892H104.677ZM111.978 101.685C111.411 101.685 110.907 101.566 110.465 101.329C110.029 101.091 109.683 100.768 109.426 100.359C109.175 99.9438 109.05 99.4722 109.05 98.9446C109.05 98.4103 109.175 97.9387 109.426 97.5298C109.683 97.1143 110.029 96.7911 110.465 96.5602C110.907 96.3228 111.411 96.2041 111.978 96.2041C112.539 96.2041 113.04 96.3228 113.482 96.5602C113.924 96.7911 114.27 97.111 114.521 97.5199C114.772 97.9288 114.897 98.4037 114.897 98.9446C114.897 99.4722 114.772 99.9438 114.521 100.359C114.27 100.768 113.924 101.091 113.482 101.329C113.04 101.566 112.539 101.685 111.978 101.685ZM111.978 100.419C112.236 100.419 112.467 100.359 112.671 100.241C112.875 100.122 113.037 99.9537 113.156 99.7361C113.275 99.5118 113.334 99.248 113.334 98.9446C113.334 98.6346 113.275 98.3708 113.156 98.1531C113.037 97.9354 112.875 97.7673 112.671 97.6485C112.467 97.5298 112.236 97.4704 111.978 97.4704C111.721 97.4704 111.49 97.5298 111.286 97.6485C111.081 97.7673 110.917 97.9354 110.791 98.1531C110.673 98.3708 110.613 98.6346 110.613 98.9446C110.613 99.248 110.673 99.5118 110.791 99.7361C110.917 99.9537 111.081 100.122 111.286 100.241C111.49 100.359 111.721 100.419 111.978 100.419ZM115.929 101.606V96.2832H117.403V97.787L117.195 97.3517C117.353 96.9758 117.607 96.6922 117.957 96.5009C118.306 96.303 118.732 96.2041 119.233 96.2041V97.6287C119.167 97.6221 119.108 97.6188 119.055 97.6188C119.002 97.6123 118.946 97.609 118.887 97.609C118.465 97.609 118.122 97.731 117.858 97.975C117.601 98.2125 117.472 98.5851 117.472 99.093V101.606H115.929ZM122.754 101.685C122.147 101.685 121.613 101.566 121.151 101.329C120.696 101.091 120.343 100.768 120.092 100.359C119.842 99.9438 119.716 99.4722 119.716 98.9446C119.716 98.4103 119.839 97.9387 120.083 97.5298C120.333 97.1143 120.673 96.7911 121.102 96.5602C121.53 96.3228 122.015 96.2041 122.556 96.2041C123.077 96.2041 123.545 96.3162 123.961 96.5404C124.383 96.7581 124.716 97.0747 124.96 97.4902C125.204 97.8992 125.326 98.3905 125.326 98.9644C125.326 99.0237 125.323 99.093 125.316 99.1721C125.31 99.2447 125.303 99.3139 125.296 99.3799H120.973V98.4796H124.485L123.892 98.7467C123.892 98.4697 123.836 98.229 123.723 98.0245C123.611 97.82 123.456 97.6617 123.258 97.5496C123.061 97.4309 122.83 97.3715 122.566 97.3715C122.302 97.3715 122.068 97.4309 121.863 97.5496C121.666 97.6617 121.511 97.8233 121.398 98.0344C121.286 98.2388 121.23 98.4829 121.23 98.7665V99.0039C121.23 99.2942 121.293 99.5514 121.418 99.7756C121.55 99.9933 121.731 100.161 121.962 100.28C122.2 100.392 122.477 100.448 122.793 100.448C123.077 100.448 123.324 100.406 123.535 100.32C123.753 100.234 123.951 100.105 124.129 99.9339L124.95 100.824C124.706 101.101 124.399 101.316 124.03 101.467C123.661 101.613 123.235 101.685 122.754 101.685Z" fill="#DAC062"/>
<path d="M69.2499 61.4728H86.0314V67.7472H69.2499V61.4728ZM69.8474 75.8143H88.82V82.2878H61.8302V47.4301H88.1727V53.9037H69.8474V75.8143ZM106.692 82.8854C103.903 82.8854 101.231 82.5202 98.6747 81.7899C96.1185 81.0263 94.0602 80.047 92.4999 78.8519L95.2387 72.7767C96.7327 73.839 98.4921 74.7187 100.517 75.4159C102.575 76.0798 104.65 76.4118 106.742 76.4118C108.335 76.4118 109.613 76.2624 110.576 75.9636C111.572 75.6317 112.302 75.1835 112.767 74.6191C113.232 74.0548 113.464 73.4074 113.464 72.6771C113.464 71.7475 113.099 71.0172 112.369 70.486C111.638 69.9216 110.676 69.4735 109.481 69.1415C108.286 68.7763 106.958 68.4443 105.497 68.1456C104.069 67.8136 102.625 67.4152 101.165 66.9504C99.7371 66.4857 98.4257 65.8881 97.2306 65.1577C96.0355 64.4274 95.0562 63.4647 94.2926 62.2695C93.5623 61.0744 93.1971 59.5473 93.1971 57.6882C93.1971 55.6964 93.7282 53.8871 94.7906 52.2604C95.8861 50.6005 97.5128 49.2892 99.6707 48.3264C101.862 47.3305 104.601 46.8325 107.887 46.8325C110.078 46.8325 112.236 47.0981 114.361 47.6293C116.485 48.1272 118.361 48.8908 119.988 49.9199L117.498 56.0449C115.871 55.1154 114.245 54.4348 112.618 54.0033C110.991 53.5385 109.398 53.3061 107.837 53.3061C106.277 53.3061 104.999 53.4887 104.003 53.8539C103.007 54.219 102.293 54.7004 101.862 55.298C101.43 55.8623 101.214 56.5263 101.214 57.2898C101.214 58.1862 101.58 58.9165 102.31 59.4809C103.04 60.0121 104.003 60.4436 105.198 60.7756C106.393 61.1076 107.705 61.4396 109.132 61.7716C110.593 62.1035 112.037 62.4853 113.464 62.9169C114.925 63.3485 116.253 63.9294 117.448 64.6598C118.643 65.3901 119.606 66.3529 120.336 67.548C121.1 68.7431 121.482 70.2536 121.482 72.0795C121.482 74.0382 120.934 75.8309 119.838 77.4576C118.743 79.0842 117.1 80.3956 114.908 81.3915C112.751 82.3874 110.012 82.8854 106.692 82.8854Z" fill="#DAC062"/>
<mask id="path-4-inside-1_1_201" fill="white">
<rect x="43" y="24" width="97" height="88.1818" rx="2.93939"/>
</mask>
<rect x="43" y="24" width="97" height="88.1818" rx="2.93939" stroke="#DAC062" stroke-width="8.81818" mask="url(#path-4-inside-1_1_201)"/>
</svg>
